<?xml version="1.0" encoding="utf-8"?>
<!-- Generator: Adobe Illustrator 16.0.0, SVG Export Plug-In . SVG Version: 6.00 Build 0)  -->
<!DOCTYPE svg PUBLIC "-//W3C//DTD SVG 1.1//EN" "http://www.w3.org/Graphics/SVG/1.1/DTD/svg11.dtd">
<svg version="1.1" xmlns="http://www.w3.org/2000/svg" xmlns:xlink="http://www.w3.org/1999/xlink" x="0px" y="0px" width="1027px"
	 height="448px" viewBox="0 0 1027 448" enable-background="new 0 0 1027 448" xml:space="preserve">
<g id="Layer_3">
</g>
<g id="Layer_4">
	<line fill="none" stroke="#F1F2F2" stroke-width="6" stroke-miterlimit="10" x1="711.09" y1="316.83" x2="711.09" y2="315.94"/>
	<path fill="none" stroke="#FFFFFF" stroke-width="6" stroke-miterlimit="10" d="M711.11,315.5l0.229,93c0,2.44-2.51,2.6-2.51,2.6
		h-167.5"/>
	<path fill="#FFFFFF" d="M823.7,243.32l-0.681,1.14l-0.069,0.11l-0.53,0.89l-1.38,2.3l-0.37,0.08c0.58,0.141,1.17,0.271,1.75,0.38
		c0.83,0.181,1.65,0.34,2.48,0.49h0.01c8.72,1.6,17.58,2.14,26.399,1.61h0.011c2.04-0.12,4.069-0.29,6.1-0.54L823.7,243.32z
		 M835.57,253.59c3.979,1.19,9.06,2.2,15.39,2.58c1.37,0.07,6.64,0.19,9.91-0.13v-3.22C852.49,254.02,844,254.28,835.57,253.59z
		 M917.09,273.3c-0.7-6.83-3.14-11.58-6.1-14.88l4.439,23.561C917.93,278.75,917.12,273.48,917.09,273.3z M757.39,258.85v-0.01
		l-1.12-2.06c-3.119-3.48-7.399-4.561-11.539-4.561c-6.921,0-13.44,3.04-13.45,3.04c-8.5,4.9-9.29,8.09-9.24,9.23
		c0.09,2.109,3.04,3.51,3.42,3.72c9.61,6.44,20.59,2.7,22.68,1.86c1.16-3.09,3.12-4.4,3.221-4.46c2.76-1.86,4.62-4.03,5.739-5.61
		c0.19-0.27,0.36-0.51,0.521-0.74v-0.01L757.39,258.85z M749.6,309.15c-0.109-0.08-0.39-0.29-0.56-0.271
		c-0.05-0.04-0.43,0.19-0.63,0.37c-0.34,1.81-1.26,3.34-2.69,4.45c-4.09,3.18-11.14,2.03-12.1,1.859
		c-3.66-0.909-6.38-0.739-7.87,0.471c-1.48,1.2-1.54,3.29-1.54,3.62c0,0.02,0,0.04,0,0.04l0.05,0.81l-0.43,0.69
		c-1.15,1.859-1.54,3.5-1.16,4.979c-0.01,0.01,0,0.021,0.01,0.03l0.57,1.35c0,0.01,0,0.021,0.01,0.03c2.5,4.2,10.61,6.84,14.75,7.8
		c0.28-0.38,0.681-0.76,1.24-1.11c6.02-3.72,7.64-7.8,7.69-7.8c0.829-5.029,2.06-8.18,3.39-10.12c0.439-0.64,0.89-1.149,1.34-1.55
		C751.69,312.12,749.81,309.34,749.6,309.15z M756.72,315.78l4.9-3.521c0,0,0.01,0,0.02-0.01l7.051-5.07l0.319-6.38l-13.109,9.46
		c0.35,0.931,0.64,1.94,0.79,3.021 M844.35,282.88c-4.649-5.21-12.51-3.32-14.14-3.1c-13.79,0.46-28.79,32.609-28.96,32.87
		l-0.96,1.479l-1.67-0.52c-8.97-2.73-39.53,5.22-43.69,4.529c-0.51,0.38-2.29,2.19-3.5,9.4c-0.069,0.22-1.699,5.12-8.35,9.729
		c29.21,15.811,65.02,6.341,72.9,5.2c0.949-0.14,1.85-0.359,2.05-0.38l-0.21,0.09c30.699-10.54,30.47-45.449,30.52-45.62
		C849.97,290.62,846.83,285.67,844.35,282.88z M909,289.29c-5.78,0-13.31-2.46-22.58-7.39c-0.21-0.131-20.51-12.601-36.38-12.601
		c-9.74-0.79-35.76-0.49-39.17,10.01l-4.5-1.46c5.16-15.909,40.08-13.6,43.85-13.279c5.48,0,11.351,1.319,16.811,3.12l-5.601-6.95
		c-1.89,0.2-4.149,0.25-6.109,0.25c-2.551,0-4.59-0.101-4.63-0.101c-20.931-1.229-29.53-9.05-29.891-9.38l-0.14-0.13
		c-0.98-0.21-1.95-0.43-2.92-0.68c-0.01,0-0.01,0-0.01,0c-8.98,2.39-16.681,11.939-17.051,12.319
		c-8.6,7.381-13.35,36.431-14.63,45.271c4.84-0.4,9.23-0.38,12.26,0.44c3.87-5.641,16.351-31.41,30.04-33.391
		c0.57-0.09,1.141-0.13,1.65-0.16c2.35-0.35,11.69-2.229,17.82,4.641c3.58,4.02,7.06,10.41,4.97,18
		c-0.32,1.06-0.43,37.39-33.79,48.8c0,0-0.83,0.18-2.36,0.399c-4.52,0.66-17.659,3.78-33.649,3.78c-0.7,0-1.41-0.01-2.12-0.02
		c0.02,0.08,0.04,0.17,0.07,0.26c0.26,0.17,1.22,0.66,3.76,0.84l0.49,0.09c0.1,0.03,10.479,2.94,26.29,2.351
		c0.659,0.029,16.43,0.85,31.449,5.199c5.65,1.48,21.82,4.681,29.011,1.65c0.029-0.01,3.26-0.91,3.159-2.88
		c0.011-0.05,0.511-5.58-1.189-13.5c-0.22-1.5-1.84-13.18,0.27-20.29c-0.41-0.1-0.819-0.22-1.229-0.36
		c-1.26-0.55-12.44-5.409-15.82-8.79l3.34-3.35c2.07,2.06,9.9,5.87,14.181,7.72c15.319,5.16,32.43-19.3,39.739-31.34
		C912.81,288.99,911.01,289.29,909,289.29z M704.47,309.2l0.011,5.939l6.609,1.69l8.05,2.06c0.11-1.51,0.63-3.569,1.96-5.33
		L704.47,309.2z M746.03,293.33l0.08,10.8l-1.69,0.71c-2.74,1.16-5.65,1.811-8.08,1.811c-6.1,0-9.76-2.61-10.02-2.771l-1.33-0.77
		v-10.19l-20.57,11.4l22.3,5.819h0.011c2.26-0.47,4.92-0.33,7.949,0.431c1.79,0.319,6.08,0.52,7.9-0.891
		c0.53-0.42,0.8-0.949,0.85-1.72l0.051-0.69l0.399-0.569c0.08-0.12,0.53-0.75,1.28-1.391c0.76-0.63,1.82-1.29,3.149-1.479
		c1.091-0.16,2.771-0.05,4.5,1.36c0.051,0.04,0.351,0.359,0.761,0.909l11.359-8.21L746.03,293.33z M739.76,276.77
		c-0.79,0.07-1.63,0.12-2.5,0.12c-1.899,0-3.97-0.22-6.13-0.779v24.149c1.89,0.76,4.87,1.601,8.83,0.55L739.76,276.77z
		 M762.47,259.21c-1.06,2.24-3.76,7.15-8.5,10.35c-0.029,0.021-1.989,1.48-1.939,5.591c1.229,0.85,3.279,2.26,3.85,2.729
		c0.13,0.101,9.65,5.58,21.561,10.07c0,0,0,0,0.01,0l7.08,2.189c2.41-10.819,6.12-23.08,11.319-28.949
		C783.52,257.35,769.9,258.28,762.47,259.21z M873.52,365.63c-0.029,0.01-0.06,0.01-0.09,0.021c-2.649,1.13-6.14,1.54-9.85,1.54
		c-9.87,0-21.21-2.931-21.9-3.11c-14.51-4.2-30.22-5.03-30.22-5.04c-15.24,0.58-25.58-1.98-27.33-2.45
		c-0.12-0.01-0.24-0.02-0.36-0.03c-1.789,4.58-6.05,8.171-6.479,8.41c-0.61,0.271-1.06,0.521-1.38,0.73
		c2.16,1.7,7.01,4.71,14.75,5.229c1.03-0.14,25.21-3.33,35.81,2.61c2.08,0.65,19.21,5.62,36.11,0.94c0.35-0.11,7.97-2.54,13.86-2.99
		C875.4,370.16,874.21,367.79,873.52,365.63z M847.04,381c-12.24,0-21.63-3.07-22.18-3.25l-0.45-0.2
		c-7.101-4.16-24.3-3.18-32.18-2.28c2.76,3.12,4.899,2.98,4.92,3l1.21,0.69v1.38c0,7.05,5.479,35.61,6.779,42.311
		c2.99,0.81,10.971,2.659,21.62,2.659c8.92,0,16.55-1.399,19.46-2.02c3.561-11.43,9.721-39.99,9.78-40.29l0.28-0.71
		c0.609-0.771,1.149-1.49,1.63-2.15C854.15,380.75,850.48,381,847.04,381z M847.72,427.81c-2.689,0.601-10.96,2.23-20.96,2.23
		c-12.58,0-21.479-2.39-23.819-3.09c-13.04,2.35-18.051,5.93-19.931,8.09c16.561,2.75,55.94,1.07,65.34,0.63
		C848.47,432.88,848.1,429.95,847.72,427.81z M812.94,440.15c-11.771,0-23.62-0.4-31.12-1.7l-0.33,6.05
		c3.81,0.86,18.09,2.76,66.17,0.2l0.28-5.45C842.02,439.53,827.54,440.15,812.94,440.15z M907.2,255.07h-0.01
		c-2.431-1.7-4.86-2.69-6.75-3.25l6.13,32.47l-0.48,0.05c2.65,0.391,4.851,0.28,6.561-0.359L907.2,255.07z M897.15,251.13
		l-0.051-0.27l-0.22-0.051l-3.7-0.819c-1.05-0.04-2.06-0.07-3.05-0.11l5.94,31.41c2.64,1.11,5.06,1.94,7.239,2.479L897.15,251.13z
		 M886.96,249.8c-2.61-0.06-5-0.09-7.15-0.09l5.021,25.81v0.011h0.01c2.311,1.27,3.74,2.149,3.93,2.27
		c1.32,0.7,2.601,1.351,3.841,1.931L886.96,249.8z M876.66,249.73c-0.391,0-0.771,0-1.141,0.01c-1.72,0.479-3.439,0.92-5.18,1.31
		l3.311,19.12c2.85,1.18,5.449,2.41,7.67,3.521L876.66,249.73z M867.31,251.72c-0.569,0.11-1.13,0.221-1.699,0.32v6.34l3.63,4.5
		L867.31,251.72z"/>
	<polyline fill="none" stroke="#FFFFFF" stroke-width="4" stroke-miterlimit="10" points="524.452,426.023 530.452,426.023 
		530.452,421.525 541.646,421.525 541.646,401.115 530.452,401.115 530.452,395.619 524.503,395.619 	"/>
</g>
<g id="Layer_1">
	<path fill="#FFFFFF" d="M762.16,82.96c-2.96-0.06-7.62-0.4-12.23-0.8c2-4.36,4.101-8.68,4.801-9.82c2.239,0.83,4.5,1.72,6.399,2.51
		C761.77,76.89,762.08,80.31,762.16,82.96z"/>
	<path fill="#FFFFFF" d="M871.3,8.49c-0.01,0.43-0.17,0.87-0.45,1.3c-0.42,0.65-1.14,1.3-2.109,1.88c-2.37,1.43-6.25,2.5-10.94,2.5
		l-0.56-0.01c-4.09-0.06-7.9-0.94-10.48-2.34c-0.89-0.48-1.63-1.02-2.189-1.61c-0.391-0.41-0.67-0.81-0.83-1.22
		c-0.13-0.31-0.19-0.62-0.181-0.92c0.03-0.85,0.601-1.73,1.631-2.53l0.329-0.12l2.471-1.44l0.96-0.56l0.03,0.2
		c2.199-0.75,4.96-1.22,8.09-1.22l0.55,0.01c2.899,0.05,5.649,0.5,7.93,1.26c2.04,0.67,3.71,1.59,4.75,2.69
		C870.98,7.08,871.32,7.79,871.3,8.49z"/>
	<path fill="#FFFFFF" d="M945.66,127.99c-33.521-5.12-64.72-8.94-88.36-11.53c0.4,0.02,0.79,0.04,1.181,0.06h0.05
		c24.96,1.33,47.31,4.31,64,7.1c0.029,0,0.05,0.01,0.08,0.01C932.5,125.28,940.4,126.86,945.66,127.99z"/>
	<path fill="#FFFFFF" d="M1024.65,128.65l-1.66,11.57l-60.55-15.31l-0.011-15.26l61.471,17.77
		C1024.23,127.87,1024.51,128.34,1024.65,128.65z"/>
	<g>
		<path fill="#FFFFFF" d="M851.31,250.32c-8.819,0.529-17.68-0.011-26.399-1.61h-0.01c-0.83-0.15-1.65-0.31-2.48-0.49v-3.76
			l0.53,0.11l1.84,0.37L851.31,250.32z"/>
		<path fill="#FFFFFF" d="M860.87,252.82v3.22c-3.271,0.32-8.54,0.2-9.91,0.13c-6.33-0.38-11.41-1.39-15.39-2.58
			C844,254.28,852.49,254.02,860.87,252.82z"/>
	</g>
	<g>
		<path fill="#FFFFFF" d="M24.64,210.381H2.475v-43.969H24.64v-11.97c0-20.751,5.274-35.879,15.124-45.728
			c9.857-9.85,24.276-14.775,43.274-14.775c16.884,0,28.141,2.11,37.998,5.279v44.324c-7.743-2.816-15.128-4.571-24.278-4.571
			c-12.311,0-19.35,6.327-19.35,20.396v7.396h43.274v43.619H78.112v142.83H24.64V210.381z"/>
		<path fill="#FFFFFF" d="M130.23,164.644h53.472v37.995c10.905-26.027,28.495-42.921,60.158-41.507v55.929h-2.815
			c-35.529,0-57.343,21.467-57.343,66.494v69.656H130.23V164.644z"/>
		<path fill="#FFFFFF" d="M251.965,96.401h56.287v47.493h-56.287V96.401z M253.373,164.644h53.471v188.567h-53.471V164.644z"/>
		<path fill="#FFFFFF" d="M312.135,328.234l22.863-35.182c20.406,14.777,41.867,22.518,59.457,22.518
			c15.48,0,22.516-5.635,22.516-14.07v-0.707c0-11.607-18.297-15.48-39.053-21.809c-26.383-7.74-56.287-20.053-56.287-56.646v-0.695
			c0-38.352,30.959-59.816,68.953-59.816c23.924,0,49.957,8.094,70.361,21.82l-20.404,36.938
			c-18.645-10.912-37.291-17.592-51.012-17.592c-13.018,0-19.697,5.631-19.697,13.02v0.705c0,10.549,17.939,15.471,38.344,22.516
			c26.387,8.791,56.986,21.455,56.986,55.93v0.705c0,41.861-31.309,60.867-72.115,60.867
			C366.664,356.734,337.113,347.932,312.135,328.234z"/>
		<path fill="#FFFFFF" d="M470.787,164.644h53.471v27.097c13.016-17.59,30.959-30.609,58.752-30.609
			c43.975,0,85.838,34.474,85.838,97.447v0.705c0,62.967-41.162,97.451-85.838,97.451c-28.494,0-46.086-13.02-58.752-28.148v115.842
			h-53.471V164.644z M615.371,259.283v-0.705c0-31.312-21.105-52.064-46.082-52.064s-45.732,20.752-45.732,52.064v0.705
			c0,31.307,20.756,52.068,45.732,52.068S615.371,290.943,615.371,259.283z"/>
	</g>
	<g>
		<path fill="#FFFFFF" d="M25.045,408.932v-0.164c0-15.703,11.532-29.605,28.707-29.605c9.651,0,15.622,2.779,21.347,7.605
			l-4.171,4.908c-4.417-3.846-9.324-6.543-17.421-6.543c-12.677,0-21.755,10.713-21.755,23.473v0.162
			c0,13.66,8.751,23.801,22.655,23.801c6.543,0,12.596-2.535,16.521-5.725v-14.23H53.507v-5.809h23.637v22.82
			c-5.316,4.742-13.332,8.75-22.982,8.75C36.168,438.375,25.045,425.289,25.045,408.932z"/>
		<path fill="#FFFFFF" d="M141.503,379.734h6.052l26.09,57.66h-6.952l-6.707-15.131h-31.161l-6.789,15.131h-6.625L141.503,379.734z
			 M157.452,416.457l-13.004-29.199l-13.086,29.199H157.452z"/>
		<path fill="#FFFFFF" d="M213.551,380.143h6.543l20.855,31.242l20.855-31.242h6.543v57.252h-6.461v-46.373l-20.855,30.67h-0.327
			l-20.856-30.59v46.293h-6.297V380.143z"/>
		<path fill="#FFFFFF" d="M313.161,380.143h41.384v5.889h-34.923v19.547h31.243v5.889h-31.243v20.039h35.332v5.889h-41.793V380.143z
			"/>
		<path fill="#FFFFFF" d="M392.815,429.051l4.007-4.742c5.97,5.396,11.696,8.096,19.629,8.096c7.688,0,12.759-4.088,12.759-9.732
			v-0.164c0-5.314-2.863-8.342-14.885-10.877c-13.168-2.863-19.22-7.115-19.22-16.521v-0.162c0-8.998,7.933-15.623,18.811-15.623
			c8.343,0,14.313,2.373,20.12,7.035l-3.763,4.988c-5.316-4.334-10.632-6.215-16.521-6.215c-7.443,0-12.187,4.088-12.187,9.24v0.164
			c0,5.398,2.944,8.424,15.54,11.123c12.759,2.781,18.647,7.443,18.647,16.193v0.164c0,9.814-8.178,16.193-19.547,16.193
			C407.127,438.211,399.685,435.186,392.815,429.051z"/>
	</g>
	<g>
		<path fill="#FFFFFF" d="M764.19,133.22c-16.03-8.65-24.79-17.44-24.891-17.54l-0.737-0.743c0.72-3.17,1.218-4.498,2.247-7.627
			c2.771,0.3,6.28,0.67,10.351,1.1l9.72,16.42C761.67,126.17,762.95,129.59,764.19,133.22z"/>
		<path fill="#FFFFFF" d="M795.9,148.37l-57.141,19.62c-3.689-14.6-4.359-29.94-1.8-45.07c4.63,4.08,15.37,12.65,31.59,20.21l7,3.27
			l-2.24-7.4c-0.159-0.53-0.79-2.59-1.63-5.17C778.09,138.61,786.86,144.44,795.9,148.37z"/>
		<path fill="#FFFFFF" d="M918.77,221.77c-17.489,16.08-39.079,25.45-61.34,28.01h-0.01c-2.03,0.25-4.06,0.42-6.1,0.54h-0.011
			c-8.819,0.529-17.68-0.011-26.399-1.61h-0.01c-0.83-0.15-1.65-0.31-2.48-0.49c-0.58-0.109-1.17-0.239-1.75-0.38l-0.451-0.09
			l-0.169-0.04c-18.35-4.229-35.85-13.25-50.479-27.12c-12.771-12.09-22.141-26.77-27.801-42.68l67.341-23.13
			c11.819,14.02,28.069,30.88,44.63,40.65l2.8,1.65l1.82-2.69c0.43-0.64,7.909-11.92,9.33-26.37
			C879.07,188.75,896.38,212.76,918.77,221.77z"/>
		<path fill="#FFFFFF" d="M924.22,216.41c-21.02-6.91-42.609-32.2-59.279-69.45c-0.641-1.43-1.98-4.43-5.07-3.22
			c-3.09,1.21-2.17,3.96-1.271,6.6l0.431,1.3c0.21,0.62,0.41,1.23,0.59,1.83c4.17,14.09-2.11,28.28-5.311,34.2
			c-13.85-8.94-27.55-23.01-38.13-35.31l30.311-10.41l-3.36-9.8l-34.03,11.68c-7.569-9.43-12.35-16.37-12.46-16.54l-5.22-7.64
			l-1.06,9.19c-0.351,2.97,0.79,6.77,2.25,10.26c-14-7.49-26.311-18.47-26.46-18.6l-13.261-11.91c24.92,2.61,68.141,6.84,90.29,7.34
			c4.771,0.11,9.46,0.29,14.07,0.52c0.02,0,0.04,0,0.05,0.01c0.4,0.02,0.79,0.04,1.181,0.06h0.05l64,7.1
			c0.029,0,0.05,0.01,0.08,0.01c9.89,1.65,17.79,3.23,23.05,4.36h0.03c4.609,0.99,7.18,1.63,7.29,1.66l0.6,0.15
			C956.92,161.66,946.3,193.1,924.22,216.41z"/>
	</g>
	<path fill="#00AEEF" d="M871.3,8.49c-0.01,0.43-0.17,0.87-0.45,1.3c-2.13-0.47-4.18-0.86-6.13-1.19l0.83-4.93
		c2.04,0.67,3.71,1.59,4.75,2.69C870.98,7.08,871.32,7.79,871.3,8.49z"/>
	<path fill="#00AEEF" d="M849.54,8.01c-1.82,0.23-3.76,0.56-5.8,0.98c-0.13-0.31-0.19-0.62-0.181-0.92
		c0.03-0.85,0.601-1.73,1.631-2.53c0.72-0.57,1.659-1.1,2.8-1.56l0.96-0.56l0.03,0.2L849.54,8.01z"/>
	<path fill="#00AEEF" d="M897.15,251.13c-0.131-0.02-0.21-0.02-0.25-0.02l-0.021-0.301l0.22,0.051L897.15,251.13z"/>
	<path fill="none" stroke="#F1F2F2" stroke-miterlimit="10" d="M813.539,249.188"/>
	<path fill="#00AEEF" d="M747.97,64.83c0.03,0.01,0.061,0.02,0.09,0.02"/>
	<path fill="#00AEEF" d="M748.06,64.85l0.12-0.3c-0.02-0.01-0.04-0.02-0.06-0.02c-0.05,0.1-0.101,0.2-0.15,0.3 M749.79,65.29
		l-0.04,0.08c0.17,0.06,0.34,0.11,0.51,0.17C750.1,65.45,749.95,65.37,749.79,65.29z"/>
	<path fill="none" stroke="#00AEEF" stroke-width="0.25" stroke-miterlimit="10" stroke-dasharray="0.5" d="M758.692,86.883"/>
	<polygon fill="#FFFFFF" points="750.55,216.34 739.23,220.43 707.71,139.43 719.04,135.34 732.57,170.11 736.33,179.78 	"/>
	<g>
		<path fill="#FFFFFF" d="M742.065,92.319c-0.91,0.962-0.87,2.494,0.096,3.409c0.965,0.914,2.497,0.87,3.408-0.091
			c0.913-0.964,0.875-2.497-0.09-3.41C744.513,91.311,742.981,91.354,742.065,92.319z"/>
		<circle fill="#FFFFFF" cx="757.344" cy="95.082" r="2.412"/>
		<path fill="#FFFFFF" d="M765.9,87.79c-5.5,0.07-20.86-1.36-27.851-2.05c-0.64,2.53-1.2,5.94-1.71,9.02
			c-0.32,1.88-0.6,3.6-0.88,5.01c3.11,0.35,14.15,1.56,28.39,3c1.28-2.52,2.521-8.54,2.851-10.73
			C767.07,89.7,766.7,88.08,765.9,87.79z M747.08,97.068c-1.704,1.8-4.556,1.878-6.353,0.175c-1.801-1.706-1.877-4.557-0.173-6.356
			c1.709-1.803,4.559-1.88,6.358-0.175C748.712,92.414,748.788,95.265,747.08,97.068z M760.608,98.173
			c-1.705,1.801-4.559,1.877-6.356,0.173c-1.797-1.703-1.877-4.555-0.17-6.356c1.704-1.799,4.555-1.874,6.353-0.171
			C762.233,93.521,762.312,96.375,760.608,98.173z"/>
	</g>
	<path fill="none" stroke="#00AEEF" stroke-miterlimit="10" stroke-dasharray="2" d="M847.87,10.78c-0.36,0.34-0.73,0.68-1.11,1.04"
		/>
	<path fill="#FFFFFF" d="M748.06,64.85c0.551,0.17,1.12,0.34,1.69,0.52c0.17,0.06,0.34,0.11,0.51,0.17h0.01
		c5.32,1.74,11.32,4.23,12.95,4.92l1.13,0.47l0.57,1.08c1.771,3.29,2.16,8.98,2.24,12.03c0.76,0.46,1.56,1.1,2.26,2.02
		c1.74,2.26,2.32,5.33,1.74,9.1c-0.16,1.02-0.811,4.77-2.57,8.09c24.69,2.47,56.78,5.37,74.75,5.78
		c20.54,0.47,39.851,2.19,56.43,4.28h0.002l0.054-4.143l2,0.026l-0.058,4.376c0.001,0,0.001,0,0.001,0
		c31.422,4.05,52.571,9.29,52.901,9.38l0.85,0.22l0.08-84.87c-9.819-3.99-52.38-21.01-81.729-27.84c-0.41,0.98-1.12,1.9-2.08,2.71
		c0,0,0,0-0.001,0l1.755,1.67l-1.381,1.446l-1.861-1.772l0.688-0.725c-2.971,2.08-7.7,3.38-13.19,3.38c-0.2,0-0.399,0-0.609-0.01
		c-5.021-0.07-9.631-1.26-12.71-3.21c-0.801-0.5-1.5-1.06-2.08-1.66c-0.78-0.82-1.33-1.73-1.601-2.66
		c-24.8,5.72-61.88,22.04-76.89,28.65l-3.72,1.63c-0.49,0.22-1.19,0.99-1.57,1.53c-1.33,3.14-4.66,10.79-10.5,23.09
		c-0.05,0.1-0.101,0.2-0.15,0.3 M794.14,102.57l-1.939-0.47l1.17-4.86l1.939,0.47L794.14,102.57z M796.49,92.85l-1.95-0.47
		l1.17-4.86l1.95,0.47L796.49,92.85z M798.83,83.13l-1.94-0.47l1.17-4.86l1.94,0.47L798.83,83.13z M801.18,73.4l-1.949-0.46
		l1.18-4.86l1.939,0.46L801.18,73.4z M803.52,63.68l-1.939-0.47l1.17-4.86l1.94,0.47L803.52,63.68z M806.14,52.84l-0.27,1.12
		l-1.95-0.47l0.38-1.56l0.141-0.18c0.569-0.7,1.39-1.63,2.449-2.76l1.46,1.36C807.42,51.36,806.67,52.19,806.14,52.84z
		 M811.81,46.76l-1.43-1.4c1.09-1.11,2.28-2.3,3.54-3.55l1.41,1.42C814.07,44.48,812.89,45.66,811.81,46.76z M818.89,39.72
		l-1.399-1.43c1.16-1.14,2.37-2.31,3.59-3.49l1.4,1.43C821.25,37.42,820.05,38.59,818.89,39.72z M826.08,32.76l-1.39-1.44
		c1.199-1.15,2.409-2.31,3.619-3.46l1.381,1.44L826.08,32.76z M833.31,25.85l-1.369-1.45c1.22-1.16,2.439-2.31,3.63-3.44l1.37,1.45
		L833.31,25.85z M840.58,18.98l-1.37-1.45c1.271-1.19,2.49-2.34,3.65-3.43l1.37,1.46C843.07,16.65,841.84,17.79,840.58,18.98z
		 M879.35,23.235c-1.204-1.181-2.403-2.347-3.581-3.485l1.391-1.438c1.18,1.141,2.383,2.311,3.591,3.495L879.35,23.235z
		 M886.42,30.29c-1.151-1.173-2.328-2.358-3.518-3.542l1.412-1.417c1.193,1.19,2.376,2.38,3.533,3.558L886.42,30.29z
		 M893.296,37.514c-1.068-1.169-2.21-2.388-3.404-3.64l1.447-1.38c1.204,1.262,2.355,2.492,3.434,3.671L893.296,37.514z
		 M899.622,45.097c-0.746-1.067-1.767-2.366-3.035-3.861l1.525-1.294c1.309,1.542,2.368,2.891,3.148,4.009L899.622,45.097z
		 M901.89,104.194l-2-0.026l0.065-5l2,0.026L901.89,104.194z M902.02,94.195l-2-0.026l0.065-5l2,0.026L902.02,94.195z
		 M902.149,84.196l-2-0.026l0.065-5l2,0.026L902.149,84.196z M902.279,74.197l-2-0.026l0.065-5l2,0.026L902.279,74.197z
		 M902.409,64.198l-2-0.026l0.065-5l2,0.026L902.409,64.198z M902.539,54.198l-2-0.026l0.065-5l2,0.026L902.539,54.198z"/>
	<path fill="none" stroke="#00AEEF" stroke-miterlimit="10" stroke-dasharray="2" d="M868.74,11.67c-0.4-0.38-0.78-0.74-1.15-1.09"
		/>
	<g>
		<g>
			<path fill="#FFFFFF" d="M871.3,8.49c-0.01,0.43-0.17,0.87-0.45,1.3c-0.42,0.65-1.14,1.3-2.109,1.88
				c-2.37,1.43-6.25,2.5-10.94,2.5l-0.56-0.01c-4.09-0.06-7.9-0.94-10.48-2.34c-0.89-0.48-1.63-1.02-2.189-1.61
				c-0.391-0.41-0.67-0.81-0.83-1.22c-0.13-0.31-0.19-0.62-0.181-0.92c0.03-0.85,0.601-1.73,1.631-2.53
				c0.72-0.57,1.659-1.1,2.8-1.56l0.96-0.56l0.03,0.2c2.199-0.75,4.96-1.22,8.09-1.22l0.55,0.01c2.899,0.05,5.649,0.5,7.93,1.26
				c2.04,0.67,3.71,1.59,4.75,2.69C870.98,7.08,871.32,7.79,871.3,8.49z"/>
			<path fill="#00AEEF" d="M848.95,3.42l-0.96,0.56c0.31-0.13,0.64-0.25,0.99-0.36L848.95,3.42z"/>
		</g>
	</g>
</g>
</svg>
