<?xml version="1.0" encoding="utf-8"?>
<!-- Generator: Adobe Illustrator 16.0.0, SVG Export Plug-In . SVG Version: 6.00 Build 0)  -->
<!DOCTYPE svg PUBLIC "-//W3C//DTD SVG 1.1//EN" "http://www.w3.org/Graphics/SVG/1.1/DTD/svg11.dtd">
<svg version="1.1" xmlns="http://www.w3.org/2000/svg" xmlns:xlink="http://www.w3.org/1999/xlink" x="0px" y="0px"
	 width="134.333px" height="140.667px" viewBox="0 0 134.333 140.667" enable-background="new 0 0 134.333 140.667"
	 xml:space="preserve">
<g id="Layer_3">
</g>
<g id="Layer_2">
	<polygon opacity="0.3" fill="#02ADE4" points="28.167,25.668 49.417,15.418 90.834,15.418 111.001,25.751 	"/>
	<polygon opacity="0.3" fill="#02ADE4" points="69.084,25.792 47.709,35.667 91.209,35.667 	"/>
	<polygon opacity="0.3" fill="#02ADE4" points="49.25,36.5 89.584,36.5 68.917,46.166 	"/>
	<polygon opacity="0.3" fill="#02ADE4" points="9.5,45.75 30.459,64.792 27.083,42.084 	"/>
	<polygon opacity="0.3" fill="#02ADE4" points="20.917,61.542 37.584,74.792 55.834,107.167 23.751,66.292 	"/>
	<polygon opacity="0.3" fill="#02ADE4" points="103.419,62.751 68.834,46.417 34.002,62.751 32.334,65.292 107.209,64.792 	"/>
	<polygon opacity="0.3" fill="#02ADE4" points="32.501,66.168 107.334,65.667 82.584,105.251 81.334,104.918 102.251,69.418 
		70.667,73.335 36.168,69.418 54.668,101.168 54.251,103.418 	"/>
	<polygon opacity="0.3" fill="#02ADE4" points="42.751,74.751 59.834,73.167 69.334,120.667 79.834,73.917 95.584,75.167 
		69.168,126.167 	"/>
	<polygon opacity="0.3" fill="#02ADE4" points="130.209,45.417 108.459,64.667 111.709,41.542 	"/>
	<polygon opacity="0.3" fill="#02ADE4" points="116.958,63.542 100.291,76.792 82.041,109.167 114.124,68.292 	"/>
</g>
<g id="Layer_1">
	<polygon fill="none" stroke="#02ADE4" stroke-width="1.5" stroke-miterlimit="10" points="49.084,15.917 90.834,15.917 
		113.334,25.917 130.834,45.417 69.334,127.417 8.084,45.667 25.584,25.667 	"/>
	<polyline fill="none" stroke="#02ADE4" stroke-width="1.5" stroke-miterlimit="10" points="112.959,25.917 68.834,46.417 
		25.584,25.667 	"/>
	<line fill="none" stroke="#02ADE4" stroke-width="1.5" stroke-miterlimit="10" x1="91.084" y1="36.167" x2="47.584" y2="36.167"/>
	<line fill="none" stroke="#02ADE4" stroke-width="1.5" stroke-miterlimit="10" x1="46.584" y1="35.667" x2="90.834" y2="15.917"/>
	<line fill="none" stroke="#02ADE4" stroke-width="1.5" stroke-miterlimit="10" x1="92.584" y1="36.417" x2="48.084" y2="15.917"/>
	<polyline fill="none" stroke="#02ADE4" stroke-width="1.5" stroke-miterlimit="10" points="8.084,45.667 31.084,65.417 
		108.084,65.167 130.834,45.417 	"/>
	<line fill="none" stroke="#02ADE4" stroke-width="1.5" stroke-miterlimit="10" x1="91.084" y1="36.167" x2="108.084" y2="65.167"/>
	<polyline fill="none" stroke="#02ADE4" stroke-width="1.5" stroke-miterlimit="10" points="31.334,65.792 69.334,127.417 
		108.084,65.167 	"/>
	<line fill="none" stroke="#02ADE4" stroke-width="1.5" stroke-miterlimit="10" x1="30.959" y1="64.917" x2="25.584" y2="25.667"/>
	<polyline fill="none" stroke="#02ADE4" stroke-width="1.5" stroke-miterlimit="10" points="8.459,45.167 46.834,37.167 
		31.084,65.417 	"/>
	
		<line fill="none" stroke="#02ADE4" stroke-width="1.5" stroke-miterlimit="10" x1="108.459" y1="63.917" x2="112.834" y2="26.917"/>
	<line fill="none" stroke="#02ADE4" stroke-width="1.5" stroke-miterlimit="10" x1="130.334" y1="45.042" x2="91.584" y2="36.792"/>
	<line fill="none" stroke="#02ADE4" stroke-width="1.5" stroke-miterlimit="10" x1="32.084" y1="64.417" x2="72.834" y2="44.667"/>
	<line fill="none" stroke="#02ADE4" stroke-width="1.5" stroke-miterlimit="10" x1="106.959" y1="64.042" x2="63.209" y2="43.792"/>
	<polyline fill="none" stroke="#02ADE4" stroke-width="1.5" stroke-miterlimit="10" points="58.334,66.167 69.334,123.542 
		80.709,65.542 	"/>
	<line fill="none" stroke="#02ADE4" stroke-width="1.5" stroke-miterlimit="10" x1="18.896" y1="60.042" x2="36.709" y2="74.417"/>
	
		<line fill="none" stroke="#02ADE4" stroke-width="1.5" stroke-miterlimit="10" x1="101.959" y1="75.104" x2="119.334" y2="60.729"/>
	<polyline fill="none" stroke="#02ADE4" stroke-width="1.5" stroke-miterlimit="10" points="69.709,125.792 96.209,74.792 
		69.834,72.042 42.209,74.667 68.584,125.417 	"/>
	<path fill="none" stroke="#02ADE4" stroke-width="1.5" stroke-miterlimit="10" d="M46.834,37.167"/>
	<path fill="none" stroke="#02ADE4" stroke-width="1.5" stroke-miterlimit="10" d="M92.584,36.417"/>
	<polygon opacity="0.3" fill="#02ADE4" stroke="#02ADE4" stroke-miterlimit="10" points="111.709,41.542 113.334,25.917 
		92.584,36.417 	"/>
	<polygon opacity="0.3" fill="#02ADE4" stroke="#02ADE4" stroke-miterlimit="10" points="47.584,36.167 27.334,40.336 
		26.334,26.003 	"/>
</g>
</svg>
