<?xml version="1.0" encoding="utf-8"?>
<!-- Generator: Adobe Illustrator 16.0.0, SVG Export Plug-In . SVG Version: 6.00 Build 0)  -->
<!DOCTYPE svg PUBLIC "-//W3C//DTD SVG 1.1//EN" "http://www.w3.org/Graphics/SVG/1.1/DTD/svg11.dtd">
<svg version="1.1" xmlns="http://www.w3.org/2000/svg" xmlns:xlink="http://www.w3.org/1999/xlink" x="0px" y="0px"
	 width="79.222px" height="211.704px" viewBox="0 0 79.222 211.704" enable-background="new 0 0 79.222 211.704"
	 xml:space="preserve">
<g id="Layer_1">
	<path fill="none" stroke="#02ADE4" stroke-width="2.5" stroke-miterlimit="10" d="M57.818,35.575c0,0,0.552-0.662,1.384-0.397
		c0,0,0.591,0.304,1.132-0.681c0,0,2.731-4.406,4.107-8.456c0,0,1.274-1.601-2.936-4.651c0,0-2.09-1.547-4.962-3.328l-0.93-0.578
		c-2.872-1.78-5.188-2.965-5.188-2.965c-4.604-2.416-5.471-0.563-5.471-0.563c-3.017,3.032-5.747,7.438-5.747,7.438
		c-0.645,0.923-0.107,1.315-0.107,1.315c0.601,0.629,0.255,1.418,0.255,1.418s-0.306,0.537,1.621,1.698l15.093,9.102
		C56.069,34.926,57.38,35.899,57.818,35.575z"/>
	<path opacity="0.3" fill="#02ADE4" d="M29.3,96.05c0.184,1.461-0.852,2.795-2.312,2.98l0,0c-1.461,0.184-2.795-0.852-2.979-2.312
		l0,0c-0.185-1.463,0.852-2.797,2.313-2.98l0,0C27.782,93.554,29.116,94.589,29.3,96.05L29.3,96.05z"/>
	<path opacity="0.3" fill="#02ADE4" d="M43.594,84.171c0.185,1.461-0.851,2.795-2.312,2.979l0,0
		c-1.462,0.186-2.796-0.852-2.979-2.312l0,0c-0.184-1.461,0.852-2.795,2.312-2.979l0,0C42.075,81.675,43.409,82.71,43.594,84.171
		L43.594,84.171z"/>
	<path opacity="0.3" fill="#02ADE4" d="M32.128,70.497c0.185,1.461-0.851,2.795-2.312,2.979l0,0
		c-1.461,0.184-2.795-0.852-2.979-2.312l0,0c-0.184-1.461,0.852-2.795,2.312-2.979l0,0C30.61,67.999,31.944,69.034,32.128,70.497
		L32.128,70.497z"/>
	<path opacity="0.3" fill="#02ADE4" d="M47.938,43.979c0.184,1.461-0.852,2.795-2.312,2.979l0,0
		c-1.462,0.184-2.795-0.852-2.979-2.312l0,0c-0.185-1.461,0.851-2.795,2.313-2.979l0,0C46.421,41.482,47.754,42.518,47.938,43.979
		L47.938,43.979z"/>
	<path opacity="0.3" fill="#02ADE4" d="M46.011,60.685c0.184,1.461-0.852,2.795-2.312,2.979l0,0
		c-1.461,0.184-2.795-0.852-2.979-2.312l0,0c-0.185-1.461,0.852-2.795,2.313-2.979l0,0C44.493,58.188,45.827,59.224,46.011,60.685
		L46.011,60.685z"/>
	<path opacity="0.3" fill="#02ADE4" d="M33.294,79.757c0.092,0.73-0.425,1.396-1.156,1.49l0,0c-0.73,0.092-1.396-0.426-1.488-1.156
		l0,0c-0.093-0.732,0.425-1.398,1.156-1.49l0,0C32.536,78.509,33.202,79.026,33.294,79.757L33.294,79.757z"/>
	<path opacity="0.3" fill="#02ADE4" d="M47.362,90.081c0.092,0.73-0.426,1.396-1.156,1.488l0,0c-0.731,0.092-1.398-0.426-1.49-1.156
		l0,0c-0.092-0.73,0.426-1.396,1.156-1.488l0,0C46.603,88.833,47.27,89.349,47.362,90.081L47.362,90.081z"/>
	<path opacity="0.3" fill="#02ADE4" d="M37.329,61.106c0.092,0.73-0.426,1.396-1.156,1.488l0,0c-0.73,0.092-1.397-0.424-1.49-1.156
		l0,0c-0.092-0.73,0.426-1.396,1.156-1.488l0,0C36.57,59.858,37.237,60.376,37.329,61.106L37.329,61.106z"/>
	<path opacity="0.3" fill="#02ADE4" d="M42.175,70.239c0.092,0.73-0.426,1.396-1.156,1.488l0,0c-0.73,0.094-1.397-0.424-1.49-1.154
		l0,0c-0.092-0.732,0.426-1.398,1.157-1.49l0,0C41.416,68.991,42.083,69.509,42.175,70.239L42.175,70.239z"/>
	<path opacity="0.3" fill="#02ADE4" d="M46.209,51.589c0.092,0.73-0.425,1.396-1.155,1.488l0,0c-0.732,0.092-1.398-0.426-1.49-1.156
		l0,0c-0.092-0.73,0.426-1.396,1.156-1.488l0,0C45.45,50.341,46.116,50.856,46.209,51.589L46.209,51.589z"/>
	<path opacity="0.3" fill="#02ADE4" d="M33.015,45.524c0.092,0.73-0.426,1.396-1.156,1.488l0,0c-0.731,0.092-1.398-0.426-1.49-1.156
		l0,0c-0.092-0.73,0.426-1.396,1.156-1.488l0,0C32.255,44.274,32.922,44.792,33.015,45.524L33.015,45.524z"/>
	<path opacity="0.3" fill="#02ADE4" d="M23.491,91.952c0.049,0.389-0.226,0.742-0.613,0.791l0,0
		c-0.389,0.049-0.742-0.225-0.792-0.613l0,0c-0.049-0.389,0.226-0.742,0.614-0.791l0,0C23.089,91.29,23.442,91.563,23.491,91.952
		L23.491,91.952z"/>
	<path opacity="0.3" fill="#02ADE4" d="M31.101,87.341c0.049,0.389-0.227,0.742-0.615,0.791l0,0
		c-0.389,0.049-0.742-0.225-0.791-0.613l0,0c-0.049-0.389,0.227-0.742,0.615-0.791l0,0C30.696,86.679,31.051,86.952,31.101,87.341
		L31.101,87.341z"/>
	<path opacity="0.3" fill="#02ADE4" d="M44.31,76.187c0.049,0.389-0.227,0.742-0.614,0.791l0,0
		c-0.388,0.049-0.742-0.227-0.791-0.613l0,0c-0.05-0.389,0.226-0.744,0.614-0.793l0,0C43.907,75.522,44.261,75.798,44.31,76.187
		L44.31,76.187z"/>
	<path opacity="0.3" fill="#02ADE4" d="M51.099,84.739c0.049,0.387-0.227,0.742-0.615,0.791l0,0
		c-0.389,0.049-0.742-0.227-0.791-0.615l0,0c-0.049-0.389,0.227-0.742,0.615-0.791l0,0C50.694,84.075,51.049,84.351,51.099,84.739
		L51.099,84.739z"/>
	<path opacity="0.3" fill="#02ADE4" d="M32.329,58.755c0.049,0.389-0.227,0.742-0.614,0.791l0,0
		c-0.389,0.049-0.743-0.227-0.792-0.615l0,0c-0.049-0.387,0.227-0.742,0.615-0.791l0,0C31.926,58.091,32.28,58.366,32.329,58.755
		L32.329,58.755z"/>
	<path opacity="0.3" fill="#02ADE4" d="M39.328,49.642c0.05,0.389-0.226,0.742-0.614,0.791l0,0
		c-0.389,0.049-0.742-0.227-0.791-0.613l0,0c-0.049-0.389,0.227-0.742,0.614-0.791l0,0C38.925,48.979,39.279,49.253,39.328,49.642
		L39.328,49.642z"/>
	<path opacity="0.3" fill="#02ADE4" d="M33.278,51.286c0.049,0.389-0.227,0.742-0.614,0.791l0,0
		c-0.389,0.049-0.743-0.227-0.792-0.613l0,0c-0.049-0.389,0.227-0.742,0.615-0.791l0,0C32.875,50.624,33.229,50.897,33.278,51.286
		L33.278,51.286z"/>
	<path opacity="0.3" fill="#02ADE4" d="M37.628,93.155c0.049,0.387-0.227,0.742-0.614,0.791l0,0
		c-0.389,0.049-0.743-0.227-0.792-0.615l0,0c-0.049-0.389,0.227-0.742,0.615-0.791l0,0C37.225,92.491,37.579,92.767,37.628,93.155
		L37.628,93.155z"/>
	<path opacity="0.3" fill="#02ADE4" d="M50.616,78.583c0.092,0.73-0.426,1.396-1.156,1.488l0,0c-0.73,0.092-1.396-0.426-1.489-1.156
		l0,0c-0.092-0.73,0.425-1.396,1.157-1.488l0,0C49.858,77.335,50.524,77.853,50.616,78.583L50.616,78.583z"/>
	<path opacity="0.3" fill="#02ADE4" d="M57.717,88.271c0.185,1.463-0.851,2.795-2.312,2.98l0,0
		c-1.462,0.184-2.796-0.852-2.979-2.312l0,0c-0.184-1.463,0.852-2.797,2.312-2.98l0,0C56.199,85.774,57.532,86.81,57.717,88.271
		L57.717,88.271z"/>
	<path fill="#4690CD" d="M24.013,96.72"/>
	<path fill="#4690CD" d="M29.31,96.653c-0.125,1.197-1.059,2.199-2.307,2.363l0,0c-1.256,0.164-2.422-0.574-2.846-1.713"/>
	<line fill="none" stroke="#FFFFFF" stroke-width="2.5" stroke-miterlimit="10" x1="59.884" y1="97.618" x2="17.013" y2="97.683"/>
	<path opacity="0.3" fill="#02ADE4" d="M51.915,93.868c0.092,0.73-0.426,1.396-1.156,1.488l0,0c-0.731,0.092-1.398-0.426-1.49-1.156
		l0,0c-0.092-0.73,0.426-1.396,1.156-1.488l0,0C51.155,92.62,51.822,93.136,51.915,93.868L51.915,93.868z"/>
	<path opacity="0.3" fill="#02ADE4" d="M58.562,174.341l0.269-11.877l2.131-9.088l1.911-12.84l1.164-14.76l-2.096-18.635
		l-3.017-9.951l-42.45,1.062l-2.627,9.15l-1.816,13.584l-0.174,12.621l0.317,8.527l1.618,6.85l1.654,11.131l0.695,13.52
		l-0.705,8.404l-2.877,7.166l-0.646,4.869l-0.368,6.359l1.987,3.781l19.881,3.797l11.183-0.697
		c-0.349-0.635-0.447-1.404-0.194-2.143c0.475-1.393,1.991-2.137,3.386-1.66c1.394,0.475,2.138,1.99,1.661,3.385
		c-0.015,0.043-0.038,0.078-0.054,0.119l7.77-0.484l6.104-5.557l-3.581-17.705L58.562,174.341z M58.846,192.319
		c-0.248,0.693-1.012,1.053-1.706,0.803c-0.691-0.248-1.053-1.01-0.803-1.705c0.249-0.691,1.012-1.053,1.705-0.803
		C58.735,190.862,59.095,191.626,58.846,192.319z M47.335,158.026c0.143-1.467,1.447-2.537,2.914-2.395
		c1.465,0.143,2.537,1.447,2.394,2.914c-0.144,1.465-1.448,2.537-2.915,2.395C48.263,160.796,47.191,159.493,47.335,158.026z
		 M48.563,165.366c-0.033,0.389-0.377,0.678-0.768,0.645c-0.391-0.035-0.678-0.379-0.644-0.768c0.033-0.391,0.376-0.678,0.766-0.645
		S48.597,164.976,48.563,165.366z M48.512,150.673c0.038-0.389,0.384-0.672,0.774-0.635c0.389,0.039,0.673,0.385,0.635,0.773
		c-0.037,0.391-0.385,0.676-0.773,0.637C48.759,151.411,48.474,151.063,48.512,150.673z M53.521,140.923
		c0.696-0.238,1.454,0.133,1.692,0.83s-0.133,1.455-0.83,1.693c-0.697,0.236-1.455-0.135-1.693-0.83
		C52.452,141.919,52.823,141.161,53.521,140.923z M53.641,133.526c0.37-0.125,0.772,0.072,0.898,0.443
		c0.127,0.369-0.071,0.773-0.441,0.898c-0.37,0.127-0.772-0.07-0.899-0.441C53.071,134.058,53.269,133.655,53.641,133.526z
		 M55.747,119.071c-0.373,0.127-0.773-0.072-0.9-0.441s0.07-0.773,0.441-0.9c0.369-0.125,0.772,0.072,0.898,0.441
		C56.313,118.542,56.115,118.944,55.747,119.071z M56.396,126.644c0.697-0.238,1.453,0.133,1.691,0.83s-0.133,1.455-0.829,1.691
		c-0.698,0.24-1.456-0.131-1.693-0.83C55.326,127.64,55.697,126.882,56.396,126.644z M56.503,153.636
		c0.732,0.072,1.269,0.725,1.197,1.457c-0.072,0.732-0.724,1.268-1.457,1.197c-0.732-0.072-1.268-0.725-1.197-1.457
		C55.118,154.099,55.771,153.563,56.503,153.636z M56.696,180.622c-0.033,0.391-0.376,0.678-0.766,0.645
		c-0.391-0.033-0.68-0.377-0.645-0.766c0.033-0.391,0.377-0.68,0.766-0.646C56.442,179.89,56.731,180.231,56.696,180.622z
		 M58.907,148.903c-0.698,0.238-1.456-0.133-1.693-0.83c-0.238-0.697,0.133-1.455,0.83-1.693s1.455,0.135,1.693,0.83
		C59.976,147.907,59.604,148.665,58.907,148.903z M59.513,139.997c-1.394,0.477-2.91-0.268-3.385-1.66
		c-0.477-1.395,0.267-2.91,1.661-3.387c1.394-0.475,2.909,0.27,3.386,1.662C61.651,138.007,60.907,139.522,59.513,139.997z
		 M61.66,121.735c0.696-0.238,1.454,0.133,1.692,0.83s-0.135,1.455-0.83,1.693c-0.698,0.238-1.455-0.135-1.693-0.83
		C60.591,122.731,60.962,121.974,61.66,121.735z M61.07,113.782c0.237,0.697-0.134,1.455-0.83,1.693
		c-0.698,0.236-1.455-0.135-1.693-0.832c-0.237-0.697,0.134-1.453,0.831-1.691S60.832,113.085,61.07,113.782z M57.215,98.616
		c0.693-0.25,1.456,0.111,1.704,0.803c0.25,0.695-0.111,1.457-0.803,1.705c-0.693,0.25-1.457-0.109-1.705-0.803
		C56.161,99.628,56.521,98.864,57.215,98.616z M52.968,105.271c1.394-0.477,2.909,0.268,3.385,1.66
		c0.477,1.395-0.268,2.91-1.66,3.387c-1.395,0.477-2.91-0.268-3.387-1.662C50.829,107.263,51.573,105.747,52.968,105.271z
		 M51.954,124.991c0.477,1.393-0.268,2.908-1.66,3.385c-1.395,0.475-2.91-0.268-3.387-1.662c-0.475-1.395,0.268-2.908,1.662-3.387
		C49.962,122.851,51.479,123.597,51.954,124.991z M48.002,105.558c0.37-0.127,0.772,0.07,0.899,0.441
		c0.125,0.369-0.071,0.773-0.441,0.898c-0.371,0.127-0.773-0.07-0.899-0.441C47.435,106.087,47.632,105.683,48.002,105.558z
		 M47.199,114.417c0.37-0.125,0.772,0.072,0.898,0.441c0.127,0.369-0.07,0.773-0.44,0.9c-0.371,0.125-0.773-0.072-0.9-0.441
		C46.631,114.946,46.828,114.544,47.199,114.417z M47.493,134.616c0.697-0.238,1.455,0.133,1.692,0.83
		c0.238,0.695-0.134,1.453-0.829,1.691c-0.698,0.238-1.456-0.133-1.693-0.83C46.424,135.61,46.796,134.853,47.493,134.616z
		 M46.667,142.999c1.465,0.145,2.537,1.449,2.395,2.914c-0.145,1.467-1.449,2.539-2.914,2.395c-1.467-0.145-2.539-1.447-2.395-2.914
		C43.896,143.929,45.2,142.856,46.667,142.999z M44.202,129.95c0.127,0.371-0.07,0.773-0.441,0.898
		c-0.371,0.127-0.773-0.07-0.898-0.439c-0.127-0.371,0.07-0.773,0.44-0.9S44.075,129.579,44.202,129.95z M41.806,121.06
		c-0.697,0.238-1.455-0.135-1.693-0.83c-0.237-0.697,0.135-1.455,0.832-1.693s1.453,0.135,1.691,0.83
		C42.874,120.063,42.503,120.821,41.806,121.06z M42.646,172.606c-0.033,0.389-0.375,0.678-0.768,0.645
		c-0.389-0.033-0.677-0.377-0.643-0.768c0.033-0.389,0.376-0.678,0.766-0.645C42.392,171.874,42.681,172.216,42.646,172.606z
		 M42.142,137.628c0.477,1.393-0.268,2.908-1.661,3.385s-2.909-0.268-3.386-1.662c-0.476-1.395,0.268-2.908,1.662-3.387
		C40.149,135.487,41.666,136.233,42.142,137.628z M40.846,152.854c0.39,0.037,0.674,0.385,0.636,0.773s-0.384,0.674-0.773,0.637
		c-0.39-0.039-0.674-0.385-0.637-0.775C40.11,153.101,40.457,152.815,40.846,152.854z M41.935,178.679
		c0.734,0.062,1.277,0.709,1.213,1.441c-0.062,0.734-0.709,1.277-1.443,1.215c-0.732-0.064-1.275-0.709-1.212-1.443
		S41.2,178.614,41.935,178.679z M40.476,98.079c0.693-0.248,1.455,0.111,1.705,0.805c0.248,0.693-0.111,1.457-0.805,1.705
		c-0.693,0.25-1.457-0.111-1.705-0.803C39.421,99.091,39.782,98.329,40.476,98.079z M39.85,104.685
		c1.394-0.477,2.91,0.268,3.386,1.66c0.477,1.395-0.268,2.91-1.66,3.387c-1.396,0.477-2.91-0.27-3.387-1.662
		C37.712,106.675,38.456,105.161,39.85,104.685z M37.703,111.815c0.693-0.248,1.456,0.111,1.704,0.805
		c0.25,0.693-0.111,1.457-0.803,1.705c-0.693,0.248-1.457-0.111-1.705-0.805C36.649,112.827,37.009,112.065,37.703,111.815z
		 M37.712,159.204c0.733,0.072,1.269,0.725,1.197,1.457c-0.072,0.732-0.724,1.27-1.457,1.197c-0.732-0.072-1.268-0.723-1.197-1.457
		C36.327,159.669,36.979,159.134,37.712,159.204z M36.401,146.515c-0.039,0.391-0.385,0.676-0.775,0.637
		c-0.389-0.039-0.674-0.385-0.635-0.775c0.037-0.389,0.384-0.672,0.773-0.635C36.153,145.78,36.438,146.126,36.401,146.515z
		 M36.11,128.79c0.238,0.695-0.135,1.453-0.83,1.691c-0.698,0.238-1.455-0.135-1.693-0.83c-0.238-0.697,0.133-1.455,0.83-1.693
		S35.872,128.091,36.11,128.79z M34.669,99.649c0.389,0.039,0.674,0.385,0.636,0.773c-0.039,0.391-0.385,0.676-0.774,0.637
		c-0.389-0.039-0.674-0.383-0.636-0.773C33.933,99.897,34.278,99.612,34.669,99.649z M32.29,104.776
		c0.693-0.248,1.455,0.113,1.704,0.805c0.249,0.693-0.111,1.457-0.804,1.705c-0.693,0.25-1.457-0.109-1.705-0.805
		C31.235,105.79,31.596,105.026,32.29,104.776z M31.249,119.03c1.395-0.477,2.91,0.268,3.387,1.662
		c0.475,1.393-0.269,2.908-1.662,3.385c-1.395,0.477-2.91-0.268-3.386-1.66C29.112,121.022,29.855,119.507,31.249,119.03z
		 M29.509,137.382c0.693-0.248,1.455,0.111,1.705,0.805c0.249,0.693-0.111,1.455-0.805,1.705c-0.693,0.248-1.457-0.111-1.705-0.805
		C28.455,138.394,28.815,137.632,29.509,137.382z M27.172,112.589c0.39,0.037,0.674,0.385,0.636,0.773
		c-0.039,0.389-0.385,0.674-0.773,0.637c-0.391-0.039-0.674-0.385-0.637-0.775C26.437,112.835,26.782,112.55,27.172,112.589z
		 M27.472,147.483c-0.072,0.734-0.724,1.27-1.457,1.197s-1.269-0.725-1.197-1.457c0.072-0.732,0.724-1.268,1.457-1.197
		C27.008,146.099,27.543,146.751,27.472,147.483z M26.316,131.495c0.476,1.395-0.268,2.91-1.661,3.385
		c-1.395,0.477-2.91-0.266-3.386-1.658c-0.477-1.396,0.267-2.91,1.661-3.387S25.841,130.103,26.316,131.495z M20.308,125.036
		c-0.693,0.25-1.457-0.109-1.705-0.803c-0.25-0.693,0.11-1.457,0.805-1.705c0.693-0.25,1.455,0.111,1.704,0.803
		C21.36,124.026,21,124.788,20.308,125.036z M20.767,150.972c0.391,0.037,0.674,0.385,0.637,0.773
		c-0.039,0.391-0.385,0.674-0.774,0.637c-0.39-0.039-0.675-0.385-0.636-0.773C20.031,151.218,20.378,150.933,20.767,150.972z
		 M20.56,156.521c0.732,0.072,1.268,0.725,1.196,1.457c-0.071,0.734-0.724,1.27-1.456,1.197c-0.734-0.072-1.27-0.723-1.197-1.457
		C19.174,156.985,19.826,156.448,20.56,156.521z M21.138,139.03c-0.248-0.693,0.111-1.455,0.805-1.705
		c0.693-0.248,1.456,0.111,1.705,0.805c0.25,0.693-0.111,1.457-0.803,1.705C22.15,140.083,21.387,139.724,21.138,139.03z
		 M22.13,103.946c0.693-0.248,1.455,0.111,1.705,0.805c0.248,0.693-0.111,1.457-0.805,1.705s-1.457-0.111-1.705-0.805
		C21.075,104.958,21.437,104.194,22.13,103.946z M19.741,100.075c0.389,0.039,0.674,0.387,0.637,0.773
		c-0.039,0.391-0.386,0.676-0.775,0.637c-0.389-0.039-0.674-0.383-0.635-0.773C19.005,100.323,19.351,100.038,19.741,100.075z
		 M18.819,112.364c1.394-0.477,2.91,0.268,3.385,1.662c0.477,1.393-0.268,2.91-1.66,3.385c-1.396,0.477-2.91-0.268-3.387-1.66
		C16.681,114.356,17.425,112.841,18.819,112.364z M17.468,142.597c-0.371,0.127-0.773-0.07-0.9-0.439
		c-0.126-0.371,0.072-0.773,0.442-0.9c0.37-0.125,0.772,0.07,0.899,0.441C18.035,142.067,17.838,142.472,17.468,142.597z
		 M16.896,132.36c0.389,0.039,0.674,0.385,0.637,0.773c-0.039,0.391-0.385,0.676-0.775,0.637c-0.389-0.039-0.674-0.383-0.635-0.773
		C16.16,132.608,16.506,132.323,16.896,132.36z M13.758,147.515c0.144-1.465,1.448-2.537,2.913-2.395
		c1.467,0.145,2.539,1.447,2.395,2.914c-0.143,1.467-1.447,2.537-2.914,2.395C14.687,150.286,13.614,148.981,13.758,147.515z
		 M18.775,200.144c-0.238,0.697-0.995,1.068-1.693,0.832c-0.696-0.238-1.067-0.996-0.83-1.693c0.238-0.697,0.995-1.068,1.692-0.83
		S19.013,199.446,18.775,200.144z M16.46,194.972c-1.466-0.145-2.537-1.449-2.395-2.914c0.144-1.467,1.448-2.537,2.914-2.395
		s2.538,1.447,2.395,2.914C19.23,194.042,17.927,195.114,16.46,194.972z M18.631,186.476c-0.733-0.072-1.269-0.725-1.196-1.457
		c0.071-0.732,0.724-1.268,1.456-1.197c0.733,0.072,1.269,0.725,1.197,1.457C20.017,186.013,19.364,186.548,18.631,186.476z
		 M19.638,176.192c0.144-1.467,1.449-2.539,2.914-2.395c1.466,0.143,2.537,1.447,2.395,2.914c-0.144,1.465-1.449,2.537-2.914,2.393
		C20.566,178.962,19.495,177.657,19.638,176.192z M22.476,204.13c-0.127,0.369-0.527,0.568-0.9,0.441
		c-0.368-0.127-0.566-0.529-0.439-0.9c0.126-0.369,0.529-0.566,0.898-0.441C22.405,203.356,22.603,203.761,22.476,204.13z
		 M24.351,189.212c-0.391-0.039-0.674-0.385-0.636-0.773c0.038-0.391,0.384-0.674,0.772-0.637c0.391,0.039,0.675,0.385,0.637,0.773
		C25.087,188.966,24.739,189.249,24.351,189.212z M24.724,161.448c0.037-0.389,0.384-0.674,0.773-0.635
		c0.391,0.037,0.675,0.385,0.637,0.773c-0.039,0.389-0.385,0.674-0.774,0.637C24.97,162.185,24.686,161.839,24.724,161.448z
		 M26.688,169.177c-0.733-0.07-1.27-0.723-1.197-1.457c0.071-0.732,0.725-1.268,1.457-1.195s1.27,0.723,1.196,1.457
		C28.073,168.714,27.421,169.249,26.688,169.177z M28.198,177.7c0.072-0.734,0.724-1.27,1.457-1.199
		c0.732,0.072,1.268,0.727,1.197,1.457c-0.072,0.734-0.725,1.27-1.458,1.199C28.662,179.085,28.127,178.433,28.198,177.7z
		 M31.388,188.31c-0.037,0.391-0.383,0.674-0.773,0.637c-0.39-0.039-0.674-0.385-0.636-0.775c0.038-0.389,0.385-0.674,0.773-0.635
		C31.142,187.573,31.427,187.921,31.388,188.31z M30.565,200.817c-0.127,0.369-0.529,0.566-0.9,0.441
		c-0.37-0.127-0.567-0.531-0.44-0.9c0.126-0.369,0.528-0.566,0.898-0.441C30.494,200.044,30.691,200.446,30.565,200.817z
		 M30.159,195.308c-0.732-0.072-1.27-0.725-1.197-1.457c0.072-0.734,0.725-1.27,1.457-1.197s1.269,0.723,1.197,1.455
		C31.544,194.843,30.892,195.378,30.159,195.308z M29.581,156.733c-1.466-0.143-2.537-1.447-2.395-2.914
		c0.144-1.465,1.447-2.537,2.914-2.393c1.465,0.143,2.538,1.447,2.395,2.912C32.351,155.806,31.047,156.878,29.581,156.733z
		 M33.19,181.872c-0.389-0.039-0.674-0.385-0.636-0.773c0.038-0.391,0.386-0.674,0.774-0.637c0.389,0.039,0.674,0.385,0.636,0.773
		C33.927,181.626,33.58,181.909,33.19,181.872z M37.21,205.729c-0.238,0.695-0.996,1.068-1.693,0.83s-1.068-0.996-0.83-1.693
		c0.238-0.695,0.994-1.068,1.691-0.83S37.447,205.032,37.21,205.729z M35.346,169.69c0.144-1.465,1.448-2.537,2.913-2.395
		c1.467,0.145,2.539,1.447,2.395,2.914c-0.144,1.467-1.447,2.539-2.914,2.395C36.274,172.46,35.202,171.157,35.346,169.69z
		 M40.423,199.021c-0.248,0.693-1.012,1.053-1.705,0.805c-0.691-0.248-1.053-1.012-0.803-1.705c0.248-0.693,1.011-1.053,1.704-0.805
		C40.313,197.565,40.673,198.327,40.423,199.021z M42.122,192.39c-1.467-0.125-2.553-1.418-2.428-2.885
		c0.128-1.467,1.42-2.555,2.887-2.428c1.469,0.127,2.555,1.418,2.428,2.887C44.882,191.431,43.591,192.519,42.122,192.39z
		 M46.145,186.108c-0.39-0.033-0.68-0.377-0.646-0.766c0.033-0.391,0.377-0.678,0.766-0.646c0.391,0.035,0.68,0.379,0.646,0.768
		C46.877,185.854,46.534,186.144,46.145,186.108z M48.274,178.892c-1.468-0.127-2.555-1.42-2.428-2.887
		c0.126-1.467,1.418-2.555,2.887-2.428c1.467,0.127,2.553,1.418,2.428,2.887C51.034,177.931,49.741,179.017,48.274,178.892z
		 M50.288,199.499c-0.389,0.037-0.734-0.248-0.773-0.637c-0.038-0.389,0.246-0.736,0.636-0.773c0.39-0.039,0.735,0.246,0.774,0.635
		C50.962,199.114,50.679,199.46,50.288,199.499z M51.469,191.3c-0.39-0.037-0.674-0.383-0.636-0.773
		c0.039-0.389,0.385-0.674,0.773-0.635c0.391,0.037,0.676,0.385,0.637,0.773C52.205,191.054,51.859,191.339,51.469,191.3z
		 M52.263,186.931c-0.732-0.064-1.275-0.711-1.213-1.443c0.064-0.734,0.71-1.277,1.443-1.213c0.734,0.062,1.277,0.709,1.214,1.441
		C53.644,186.45,52.998,186.993,52.263,186.931z M53.538,168.304c0.063-0.734,0.709-1.275,1.442-1.213s1.276,0.709,1.214,1.443
		c-0.063,0.732-0.709,1.275-1.443,1.213C54.019,169.685,53.474,169.038,53.538,168.304z M60.165,201.251
		c-0.477,1.393-1.991,2.137-3.387,1.66c-1.393-0.475-2.137-1.992-1.66-3.385c0.475-1.395,1.991-2.139,3.385-1.662
		C59.897,198.341,60.642,199.856,60.165,201.251z"/>
	<path fill="none" stroke="#02ADE4" stroke-width="2.5" stroke-miterlimit="10" d="M49.835,43.942c0,4.277-0.188,7.531-0.188,7.531
		c0.045,1.123,0.082,2.861,0.082,2.861l0.134,8.605c0.422,4.975,1.058,7.227,1.058,7.227c0.574,2.199,1.913,6.332,1.913,6.332
		c1.62,5.418,3.835,11.588,3.835,11.588c0.929,2.898,3.491,10.252,3.491,10.252c1.681,5.473,1.786,6.701,1.786,6.701
		c2.348,10.074,1.975,28.945,1.975,28.945c0.035,4.49-1.297,9.684-1.297,9.684c-0.519,1.758-1.482,6.514-1.482,6.514
		c-3.156,17.113-2.5,26.262-2.5,26.262c0.22,6.523,2.511,11.359,2.511,11.359c2.782,9.064,0.911,14.012,0.911,14.012
		c-1.129,3.404-4.996,4.158-4.996,4.158c-7.501,1.725-18.963,1.74-18.963,1.74l-2.305-0.027c0,0-11.459-0.303-18.912-2.213
		c0,0-3.848-0.852-4.891-4.283c0,0-1.747-4.992,1.26-13.984c0,0,2.412-4.779,2.795-11.293c0,0,0.882-9.129-1.845-26.316
		c0,0-0.843-4.781-1.32-6.549c0,0-1.2-5.227-1.054-9.713c0,0,0.098-18.871,2.697-28.887c0,0,0.136-1.227,1.952-6.654
		c0,0,2.747-7.287,3.748-10.162c0,0,2.368-6.113,4.122-11.488c0,0,1.443-4.1,2.072-6.281c0,0,0.689-2.236,1.236-7.199l0.346-8.598
		c0,0,0.016-0.592,0.016-2.061c0,0,0.062-3.629,0.062-7.906c0-0.812,0.479-0.875,0.479-0.875h20.5
		C49.063,43.224,49.835,43.036,49.835,43.942z"/>
	<path opacity="0.3" fill="#02ADE4" d="M33.466,24.302c-1.424-0.376-2.273-1.835-1.896-3.26l0,0c0.377-1.424,1.836-2.272,3.26-1.896
		l0,0c1.423,0.377,2.272,1.836,1.896,3.259l0,0C36.35,23.829,34.891,24.679,33.466,24.302L33.466,24.302z"/>
	<path opacity="0.3" fill="#02ADE4" d="M39.425,39.136c-1.423-0.377-2.272-1.836-1.896-3.26l0,0
		c0.375-1.424,1.835-2.273,3.259-1.898l0,0c1.424,0.376,2.273,1.836,1.896,3.262l0,0C42.308,38.661,40.849,39.512,39.425,39.136
		L39.425,39.136z"/>
	<path opacity="0.3" fill="#02ADE4" d="M24.873,19.954c-0.711-0.188-1.137-0.916-0.948-1.63l0,0
		c0.188-0.712,0.917-1.136,1.629-0.947l0,0c0.713,0.188,1.138,0.917,0.949,1.63l0,0C26.314,19.719,25.586,20.143,24.873,19.954
		L24.873,19.954z"/>
	<path opacity="0.3" fill="#02ADE4" d="M30.269,29.671c-0.712-0.188-1.137-0.918-0.948-1.629l0,0
		c0.187-0.712,0.917-1.137,1.629-0.949l0,0c0.712,0.189,1.137,0.918,0.948,1.631l0,0C31.71,29.436,30.979,29.86,30.269,29.671
		L30.269,29.671z"/>
	<path opacity="0.3" fill="#02ADE4" d="M49.101,37.135c0.049,0.389-0.227,0.742-0.615,0.791l0,0
		c-0.389,0.049-0.742-0.225-0.791-0.613l0,0c-0.049-0.389,0.227-0.742,0.615-0.791l0,0C48.696,36.473,49.051,36.747,49.101,37.135
		L49.101,37.135z"/>
	<path opacity="0.3" fill="#02ADE4" d="M33.601,38.885c0.049,0.389-0.227,0.742-0.615,0.791l0,0
		c-0.389,0.049-0.742-0.225-0.791-0.613l0,0c-0.049-0.389,0.227-0.742,0.615-0.791l0,0C33.196,38.223,33.551,38.497,33.601,38.885
		L33.601,38.885z"/>
	<path opacity="0.3" fill="#02ADE4" d="M38.263,29.058c0.049,0.389-0.227,0.742-0.615,0.791l0,0
		c-0.389,0.049-0.742-0.225-0.791-0.613l0,0c-0.049-0.389,0.227-0.742,0.615-0.791l0,0C37.858,28.396,38.213,28.67,38.263,29.058
		L38.263,29.058z"/>
	<path opacity="0.3" fill="#02ADE4" d="M49.06,30.322L49.06,30.322c-0.377,1.423-1.836,2.272-3.26,1.896l0,0
		c-1.423-0.376-2.272-1.836-1.896-3.259l0,0"/>
	<path opacity="0.3" fill="#02ADE4" d="M29.346,34.808c0.092,0.73-0.426,1.396-1.156,1.488l0,0c-0.731,0.092-1.398-0.425-1.49-1.156
		l0,0c-0.092-0.73,0.426-1.396,1.156-1.488l0,0C28.586,33.559,29.253,34.076,29.346,34.808L29.346,34.808z"/>
	<path opacity="0.3" fill="#02ADE4" d="M25.147,27.099c0.049,0.389-0.227,0.742-0.615,0.791l0,0
		c-0.389,0.049-0.742-0.225-0.791-0.613l0,0c-0.049-0.389,0.227-0.742,0.615-0.791l0,0C24.743,26.437,25.098,26.711,25.147,27.099
		L25.147,27.099z"/>
	<path opacity="0.3" fill="#02ADE4" d="M17.716,15.177c-1.424-0.376-2.273-1.835-1.896-3.26l0,0c0.377-1.424,1.836-2.272,3.26-1.896
		l0,0c1.423,0.377,2.272,1.836,1.896,3.259l0,0C20.6,14.704,19.141,15.554,17.716,15.177L17.716,15.177z"/>
	<path opacity="0.3" fill="#02ADE4" d="M39.216,8.177c-1.424-0.376-2.273-1.835-1.896-3.26l0,0c0.377-1.424,1.836-2.272,3.26-1.896
		l0,0c1.423,0.377,2.272,1.836,1.896,3.259l0,0C42.1,7.704,40.641,8.554,39.216,8.177L39.216,8.177z"/>
	<path opacity="0.3" fill="#02ADE4" d="M39.679,13.808c0.092,0.73-0.426,1.396-1.156,1.488l0,0c-0.731,0.092-1.398-0.425-1.49-1.156
		l0,0c-0.092-0.73,0.426-1.396,1.156-1.488l0,0C38.919,12.559,39.586,13.076,39.679,13.808L39.679,13.808z"/>
	<path opacity="0.3" fill="#02ADE4" d="M28.805,5.475c0.092,0.73-0.426,1.396-1.156,1.488l0,0c-0.731,0.092-1.398-0.425-1.49-1.156
		l0,0c-0.092-0.73,0.426-1.396,1.156-1.488l0,0C28.045,4.226,28.712,4.743,28.805,5.475L28.805,5.475z"/>
	<path opacity="0.3" fill="#02ADE4" d="M31.852,15.885c0.049,0.389-0.227,0.742-0.615,0.791l0,0
		c-0.389,0.049-0.742-0.225-0.791-0.613l0,0c-0.049-0.389,0.227-0.742,0.615-0.791l0,0C31.447,15.223,31.802,15.497,31.852,15.885
		L31.852,15.885z"/>
	<path opacity="0.3" fill="#02ADE4" d="M34.185,9.385c0.049,0.389-0.227,0.742-0.615,0.791l0,0
		c-0.389,0.049-0.742-0.225-0.791-0.613l0,0c-0.049-0.389,0.227-0.742,0.615-0.791l0,0C33.78,8.723,34.135,8.997,34.185,9.385
		L34.185,9.385z"/>
	<path opacity="0.3" fill="#02ADE4" d="M27.685,12.218c0.049,0.389-0.227,0.742-0.615,0.791l0,0
		c-0.389,0.049-0.742-0.225-0.791-0.613l0,0c-0.049-0.389,0.227-0.742,0.615-0.791l0,0C27.28,11.556,27.635,11.831,27.685,12.218
		L27.685,12.218z"/>
	<path opacity="0.3" fill="#02ADE4" d="M18.974,23.097c-0.711-0.189-1.137-0.918-0.948-1.631l0,0
		c0.188-0.711,0.917-1.136,1.629-0.947l0,0c0.713,0.188,1.138,0.917,0.949,1.63l0,0C20.415,22.86,19.687,23.284,18.974,23.097
		L18.974,23.097z"/>
	<line fill="none" stroke="#02ADE4" stroke-width="2.5" stroke-miterlimit="10" x1="16.825" y1="97.688" x2="59.812" y2="97.688"/>
</g>
<g id="Layer_2">
</g>
</svg>
